2.2Hzhigh3min_grf.mot
version=1
nRows=15
nColumns 19
inDegrees=yes
endheader
time	1_ground_force_vx	1_ground_force_vy	1_ground_force_vz	1_ground_force_px	1_ground_force_py	1_ground_force_pz	1_ground_torque_x	1_ground_torque_y	1_ground_torque_z	2_ground_force_vx	2_ground_force_vy	2_ground_force_vz	2_ground_force_px	2_ground_force_py	2_ground_force_pz	2_ground_torque_x	2_ground_torque_y	2_ground_torque_z
            1.253500	           15.444280	          217.602536	           -3.507658	           -0.218933	            0.006286	           -0.419375	           -0.004275	           -0.060240	            0.000971	           32.608127	          325.124197	            6.635931	           -0.256382	            0.005433	           -0.662632	            0.037770	            0.376587	            0.007686
            1.254000	           15.629226	          211.472752	           -3.350970	           -0.219270	            0.006287	           -0.419550	            0.000329	            0.004457	           -0.000071	           32.630622	          318.863945	            6.378951	           -0.256201	            0.005434	           -0.662775	            0.030033	            0.293481	            0.005871
            1.254500	           15.401960	          205.162033	           -3.056464	           -0.218957	            0.006289	           -0.420081	            0.014331	            0.190903	           -0.002844	           32.188683	          311.496488	            6.305939	           -0.256582	            0.005433	           -0.662801	            0.021994	            0.212837	            0.004309
            1.255000	           15.724465	          200.113476	           -2.803768	           -0.218975	            0.006286	           -0.419418	            0.029554	            0.376112	           -0.005270	           32.163107	          305.603572	            6.284933	           -0.256367	            0.005436	           -0.663482	            0.009823	            0.093334	            0.001919
            1.255500	           15.679804	          194.885370	           -2.734358	           -0.218686	            0.006285	           -0.419249	            0.035415	            0.440181	           -0.006176	           31.954652	          298.422000	            5.977839	           -0.256124	            0.005436	           -0.663115	            0.005720	            0.053422	            0.001070
            1.256000	           15.543769	          188.575455	           -2.623503	           -0.218238	            0.006285	           -0.419199	            0.023731	            0.287897	           -0.004005	           31.934467	          291.055228	            6.139289	           -0.256210	            0.005434	           -0.662671	            0.005630	            0.051316	            0.001082
            1.256500	           15.591492	          183.886787	           -2.231010	           -0.218472	            0.006285	           -0.419184	            0.008377	            0.098798	           -0.001199	           31.531885	          285.715055	            5.651133	           -0.256004	            0.005438	           -0.663710	            0.016616	            0.150561	            0.002978
            1.257000	           15.730332	          179.199119	           -2.068025	           -0.218476	            0.006282	           -0.418563	           -0.001324	           -0.015082	            0.000174	           31.183006	          278.531909	            5.625667	           -0.256147	            0.005436	           -0.663145	            0.023995	            0.214328	            0.004329
            1.257500	           15.822924	          173.611098	           -2.138070	           -0.218292	            0.006285	           -0.419258	            0.005098	            0.055936	           -0.000689	           30.878094	          272.087398	            5.086600	           -0.256225	            0.005435	           -0.663060	            0.018854	            0.166138	            0.003106
            1.258000	           15.641336	          168.201716	           -1.839813	           -0.217724	            0.006284	           -0.418787	            0.020085	            0.215985	           -0.002362	           30.572223	          266.008155	            5.393553	           -0.255987	            0.005436	           -0.663026	            0.006142	            0.053438	            0.001084
            1.258500	           15.734710	          162.071718	           -1.637041	           -0.216861	            0.006287	           -0.419486	            0.037113	            0.382274	           -0.003861	           30.267575	          259.561407	            5.464552	           -0.256206	            0.005436	           -0.663402	           -0.007201	           -0.061753	           -0.001300
            1.259000	           15.597450	          158.106633	           -1.837129	           -0.217426	            0.006285	           -0.419127	            0.040238	            0.407883	           -0.004739	           30.195081	          253.668824	            5.302782	           -0.255871	            0.005437	           -0.663376	           -0.008344	           -0.070102	           -0.001465
            1.259500	           15.507596	          153.057603	           -1.491697	           -0.217678	            0.006285	           -0.419127	            0.026405	            0.260612	           -0.002540	           29.604603	          248.510807	            5.190787	           -0.255989	            0.005440	           -0.664103	            0.003474	            0.029165	            0.000609
            1.260000	           15.372046	          147.828103	           -1.101068	           -0.216926	            0.006289	           -0.419987	            0.007447	            0.071617	           -0.000533	           29.208790	          241.328192	            4.977628	           -0.256235	            0.005435	           -0.663048	            0.016772	            0.138573	            0.002858
            1.260500	           15.510691	          142.960563	           -1.030568	           -0.216849	            0.006286	           -0.419417	            0.005408	            0.049846	           -0.000359	           28.761476	          235.434423	            4.769089	           -0.255875	            0.005434	           -0.662520	            0.018578	            0.152075	            0.003081
